<svg width="125" height="38" viewBox="0 0 125 38" fill="none" xmlns="http://www.w3.org/2000/svg">
<rect x="0.5" width="38" height="38" rx="9" fill="url(#paint0_linear_122_177)" fill-opacity="0.04"/>
<g clip-path="url(#clip0_122_177)">
<path d="M8.92701 17.5825L19.402 7.26315C19.5021 7.16448 19.5522 7.11515 19.6108 7.10009C19.6486 7.09037 19.6882 7.09067 19.7259 7.10096C19.7842 7.1169 19.8335 7.16698 19.9322 7.26715L30.096 17.5865C30.3077 17.8014 30.4135 17.9089 30.4126 18.002C30.4121 18.0608 30.3886 18.117 30.3471 18.1585C30.2813 18.2245 30.1305 18.2245 29.8289 18.2245H9.19012C8.8829 18.2245 8.72929 18.2245 8.66337 18.1577C8.62183 18.1157 8.59857 18.0589 8.59863 17.9998C8.59873 17.906 8.70816 17.7982 8.92701 17.5825Z" fill="url(#paint1_linear_122_177)" fill-opacity="0.48"/>
<path d="M20.3351 18.2246H28.7366C29.4065 18.2246 29.7415 18.2246 29.888 18.0779C29.9803 17.9855 30.0328 17.8605 30.0342 17.7299C30.0364 17.5226 29.8019 17.2834 29.3329 16.8051L20.9314 8.23551C20.4509 7.74543 20.2107 7.5004 20.0014 7.49984C19.8696 7.49949 19.743 7.55121 19.6491 7.64374C19.5001 7.79061 19.5001 8.13376 19.5001 8.82007V17.3896C19.5001 17.7027 19.5001 17.8593 19.5678 17.9757C19.6114 18.0509 19.6739 18.1133 19.749 18.157C19.8654 18.2246 20.022 18.2246 20.3351 18.2246Z" fill="url(#paint2_linear_122_177)" fill-opacity="0.24"/>
</g>
<g clip-path="url(#clip1_122_177)">
<path d="M8.88265 19.3078L19.3942 30.2845C19.4966 30.3915 19.5479 30.445 19.6086 30.4613C19.6477 30.4717 19.6889 30.4714 19.7278 30.4604C19.7883 30.4432 19.8387 30.3889 19.9396 30.2804L30.1388 19.3037C30.3371 19.0903 30.4363 18.9836 30.4337 18.8917C30.432 18.8338 30.408 18.7787 30.3667 18.738C30.3012 18.6736 30.1555 18.6736 29.8642 18.6736H9.15342C8.85686 18.6736 8.70858 18.6736 8.64292 18.7388C8.60151 18.7799 8.57775 18.8356 8.57668 18.894C8.57499 18.9865 8.67754 19.0936 8.88265 19.3078Z" fill="#091AE6"/>
</g>
<g clip-path="url(#clip2_122_177)">
<path d="M46.5833 27.7618H52.3928C53.623 27.7618 54.6785 27.5634 55.5594 27.1666C56.4484 26.7618 57.1309 26.1944 57.6071 25.4642C58.0912 24.734 58.3332 23.869 58.3332 22.869V22.8452C58.3332 22.0912 58.1547 21.4166 57.7975 20.8214C57.4484 20.2182 56.9642 19.734 56.3452 19.369C55.7261 18.996 55.0158 18.7817 54.2142 18.7261V18.6547C54.8491 18.5674 55.4166 18.3491 55.9166 17.9999C56.4166 17.6428 56.8094 17.1983 57.0951 16.6666C57.3888 16.1269 57.5357 15.5436 57.5357 14.9166V14.8928C57.5357 14.0118 57.3213 13.2499 56.8928 12.6071C56.4642 11.9563 55.857 11.4563 55.0714 11.1071C54.2857 10.7579 53.3492 10.5833 52.2618 10.5833H46.5833V13.2499H51.3333C52.1745 13.2499 52.8293 13.4404 53.2976 13.8214C53.7658 14.1944 54 14.7222 54 15.4047V15.4285C54 16.1666 53.7341 16.742 53.2023 17.1547C52.6785 17.5595 51.9087 17.7618 50.8928 17.7618H46.5833V20.2023H51.3214C52.0515 20.2023 52.6626 20.2936 53.1547 20.4761C53.6547 20.6587 54.0317 20.9325 54.2857 21.2975C54.5396 21.6547 54.6666 22.0952 54.6666 22.619V22.6428C54.6666 23.4364 54.3928 24.0436 53.8452 24.4642C53.2976 24.8769 52.5079 25.0833 51.4761 25.0833H46.5833V27.7618ZM44.7856 27.7618H48.3809V10.5833H44.7856V27.7618ZM64.4285 28.0238C65.3968 28.0238 66.2063 27.8134 66.8571 27.3928C67.5079 26.9721 67.9959 26.3928 68.3213 25.6547H68.3928V27.7618H71.869V14.9999H68.3928V22.3333C68.3928 22.8809 68.2857 23.369 68.0714 23.7976C67.865 24.2182 67.5713 24.5475 67.1904 24.7857C66.8174 25.0237 66.369 25.1428 65.8452 25.1428C65.0674 25.1428 64.4801 24.9126 64.0832 24.4523C63.6944 23.992 63.4999 23.3452 63.4999 22.5119V14.9999H60.0237V23.238C60.0237 24.2301 60.1944 25.0833 60.5357 25.7976C60.8848 26.5119 61.3849 27.0634 62.0356 27.4524C62.6944 27.8333 63.492 28.0238 64.4285 28.0238ZM74.2023 27.7618H77.6785V14.9999H74.2023V27.7618ZM75.9404 13.3571C76.4642 13.3571 76.9047 13.1785 77.2618 12.8214C77.619 12.4642 77.7975 12.0396 77.7975 11.5476C77.7975 11.0476 77.619 10.623 77.2618 10.2738C76.9047 9.91661 76.4642 9.73804 75.9404 9.73804C75.4166 9.73804 74.9761 9.91661 74.6189 10.2738C74.2618 10.623 74.0832 11.0476 74.0832 11.5476C74.0832 12.0396 74.2618 12.4642 74.6189 12.8214C74.9761 13.1785 75.4166 13.3571 75.9404 13.3571ZM80.0952 27.7618H83.5713V10.5833H80.0952V27.7618Z" fill="#091AE6"/>
<path d="M90.6426 28.0238C91.5632 28.0238 92.3609 27.8094 93.0355 27.3809C93.7181 26.9444 94.2299 26.3451 94.5712 25.5832H94.6426V27.7618H98.1188V10.5833H94.6426V17.2142H94.5712C94.222 16.4444 93.7061 15.8412 93.0236 15.4047C92.3411 14.9602 91.5474 14.738 90.6426 14.738C89.5712 14.738 88.6466 15.0039 87.8688 15.5356C87.099 16.0594 86.5037 16.8174 86.0831 17.8094C85.6624 18.7936 85.4521 19.9801 85.4521 21.369V21.3809C85.4521 22.7618 85.6585 23.9483 86.0712 24.9404C86.4918 25.9325 87.091 26.6944 87.8688 27.2261C88.6466 27.7579 89.5712 28.0238 90.6426 28.0238ZM91.8093 25.1428C91.2299 25.1428 90.726 24.992 90.2974 24.6904C89.8768 24.3809 89.5513 23.9444 89.3212 23.3809C89.099 22.8174 88.9878 22.1507 88.9878 21.3809V21.369C88.9878 20.5912 89.103 19.9245 89.3331 19.369C89.5632 18.8055 89.8886 18.373 90.3093 18.0713C90.7299 17.7698 91.2299 17.619 91.8093 17.619C92.3728 17.619 92.8649 17.7737 93.2854 18.0833C93.7141 18.3848 94.0474 18.8174 94.2855 19.3809C94.5315 19.9365 94.6545 20.5992 94.6545 21.369V21.3809C94.6545 22.1507 94.5355 22.8174 94.2974 23.3809C94.0593 23.9444 93.726 24.3809 93.2974 24.6904C92.8688 24.992 92.3728 25.1428 91.8093 25.1428Z" fill="#E69F00"/>
<path d="M100.524 27.7618H104V10.5833H100.524V27.7618ZM106.429 27.7618H109.905V10.5833H106.429V27.7618ZM118.06 28.0238C118.972 28.0238 119.766 27.9047 120.441 27.6666C121.123 27.4285 121.699 27.111 122.167 26.7142C122.643 26.3174 123.02 25.8808 123.298 25.4046C123.575 24.9285 123.762 24.4563 123.857 23.988L123.893 23.8571H120.703L120.679 23.9285C120.599 24.1666 120.449 24.4007 120.226 24.6309C120.004 24.861 119.718 25.0515 119.369 25.2023C119.02 25.3531 118.607 25.4285 118.131 25.4285C117.528 25.4285 117.008 25.2975 116.572 25.0357C116.135 24.7658 115.798 24.3809 115.56 23.8808C115.329 23.3809 115.214 22.7777 115.214 22.0713V20.7261C115.214 19.996 115.329 19.3809 115.56 18.8809C115.798 18.373 116.123 17.988 116.536 17.7261C116.957 17.4642 117.437 17.3333 117.976 17.3333C118.516 17.3333 118.988 17.4603 119.393 17.7142C119.806 17.9682 120.127 18.3491 120.357 18.8571C120.587 19.3571 120.703 19.9801 120.703 20.7261V22.0594L122.358 20.0118H113.488V22.2023H124V21.1309C124 19.8452 123.75 18.7221 123.25 17.7618C122.758 16.8015 122.056 16.0594 121.143 15.5356C120.238 15.0039 119.163 14.738 117.917 14.738C116.671 14.738 115.587 15.0118 114.667 15.5594C113.754 16.0991 113.044 16.869 112.536 17.869C112.036 18.861 111.786 20.0357 111.786 21.3928V21.4046C111.786 22.7618 112.036 23.9365 112.536 24.9285C113.044 25.9205 113.766 26.6864 114.703 27.2261C115.639 27.7579 116.758 28.0238 118.06 28.0238Z" fill="#E65969"/>
</g>
<defs>
<linearGradient id="paint0_linear_122_177" x1="38.5" y1="-2.6125" x2="0.499997" y2="41.9187" gradientUnits="userSpaceOnUse">
<stop stop-color="#E69F00"/>
<stop offset="0.223542" stop-color="#E65969"/>
<stop offset="0.431888" stop-color="#E609E1"/>
<stop offset="0.650651" stop-color="#AA0EE2"/>
<stop offset="1" stop-color="#091AE6"/>
</linearGradient>
<linearGradient id="paint1_linear_122_177" x1="19.5056" y1="7.09302" x2="19.5056" y2="18.2245" gradientUnits="userSpaceOnUse">
<stop stop-color="#E65969"/>
<stop offset="1" stop-color="#E65969" stop-opacity="0"/>
</linearGradient>
<linearGradient id="paint2_linear_122_177" x1="25.1124" y1="18.2246" x2="25.1124" y2="6.77563" gradientUnits="userSpaceOnUse">
<stop stop-color="#E69F00"/>
<stop offset="1" stop-color="white" stop-opacity="0.69"/>
</linearGradient>
<clipPath id="clip0_122_177">
<rect width="22" height="11.2245" fill="white" transform="translate(8.5 7)"/>
</clipPath>
<clipPath id="clip1_122_177">
<rect width="22" height="11.898" fill="white" transform="translate(8.5 18.6736)"/>
</clipPath>
<clipPath id="clip2_122_177">
<rect width="80" height="19.0476" fill="white" transform="translate(44.5 9.47607)"/>
</clipPath>
</defs>
</svg>
