<svg width="38" height="38" viewBox="0 0 38 38" fill="none" xmlns="http://www.w3.org/2000/svg">
<rect width="38" height="38" rx="9" fill="url(#paint0_linear_134_919)" fill-opacity="0.04"/>
<g clip-path="url(#clip0_134_919)">
<path d="M7.4659 17.5447L18.8931 6.28716C19.0024 6.17952 19.057 6.1257 19.1209 6.10928C19.1621 6.09868 19.2054 6.09901 19.2465 6.11022C19.3101 6.12761 19.3639 6.18225 19.4715 6.29153L30.5593 17.549C30.7902 17.7835 30.9057 17.9007 30.9047 18.0023C30.9042 18.0664 30.8785 18.1277 30.8333 18.173C30.7615 18.245 30.597 18.245 30.268 18.245H7.75292C7.41777 18.245 7.2502 18.245 7.17828 18.1722C7.13297 18.1263 7.1076 18.0644 7.10767 17.9999C7.10777 17.8975 7.22715 17.7799 7.4659 17.5447Z" fill="url(#paint1_linear_134_919)" fill-opacity="0.48"/>
<path d="M19.835 18.2449H29.2569C29.9268 18.2449 30.2618 18.2449 30.4082 18.0982C30.5006 18.0057 30.5531 17.8808 30.5544 17.7501C30.5566 17.5429 30.3221 17.3037 29.8531 16.8253L20.4312 7.21495C19.9508 6.72488 19.7105 6.47985 19.5013 6.47929C19.3695 6.47894 19.2429 6.53066 19.149 6.62319C19 6.77006 19 7.11321 19 7.79951V17.4099C19 17.723 19 17.8795 19.0676 17.996C19.1113 18.0711 19.1737 18.1336 19.2488 18.1772C19.3653 18.2449 19.5219 18.2449 19.835 18.2449Z" fill="url(#paint2_linear_134_919)" fill-opacity="0.24"/>
</g>
<g clip-path="url(#clip1_134_919)">
<path d="M7.41755 19.4265L18.8846 31.4011C18.9964 31.5178 19.0524 31.5762 19.1186 31.5939C19.1612 31.6053 19.2062 31.605 19.2486 31.5929C19.3146 31.5742 19.3696 31.515 19.4796 31.3966L30.6061 19.422C30.8224 19.1892 30.9306 19.0728 30.9278 18.9726C30.926 18.9093 30.8998 18.8493 30.8547 18.8049C30.7832 18.7346 30.6243 18.7346 30.3065 18.7346H7.71293C7.38941 18.7346 7.22766 18.7346 7.15603 18.8058C7.11085 18.8507 7.08493 18.9114 7.08376 18.975C7.08191 19.076 7.1938 19.1928 7.41755 19.4265Z" fill="#091AE6"/>
</g>
<defs>
<linearGradient id="paint0_linear_134_919" x1="38" y1="-2.6125" x2="-3.27222e-06" y2="41.9187" gradientUnits="userSpaceOnUse">
<stop stop-color="#E69F00"/>
<stop offset="0.223542" stop-color="#E65969"/>
<stop offset="0.431888" stop-color="#E609E1"/>
<stop offset="0.650651" stop-color="#AA0EE2"/>
<stop offset="1" stop-color="#091AE6"/>
</linearGradient>
<linearGradient id="paint1_linear_134_919" x1="19.0062" y1="6.10156" x2="19.0062" y2="18.245" gradientUnits="userSpaceOnUse">
<stop stop-color="#E65969"/>
<stop offset="1" stop-color="#E65969" stop-opacity="0"/>
</linearGradient>
<linearGradient id="paint2_linear_134_919" x1="25.1224" y1="18.2449" x2="25.1224" y2="5.75508" gradientUnits="userSpaceOnUse">
<stop stop-color="#E69F00"/>
<stop offset="1" stop-color="white" stop-opacity="0.69"/>
</linearGradient>
<clipPath id="clip0_134_919">
<rect width="24" height="12.2449" fill="white" transform="translate(7 6)"/>
</clipPath>
<clipPath id="clip1_134_919">
<rect width="24" height="12.9796" fill="white" transform="translate(7 18.7346)"/>
</clipPath>
</defs>
</svg>
