<svg width="81" height="20" viewBox="0 0 81 20" fill="none" xmlns="http://www.w3.org/2000/svg">
<g clip-path="url(#clip0_122_218)">
<path d="M2.58327 18.7618H8.39281C9.62298 18.7618 10.6785 18.5634 11.5594 18.1666C12.4484 17.7618 13.1309 17.1944 13.6071 16.4642C14.0912 15.734 14.3332 14.869 14.3332 13.869V13.8452C14.3332 13.0912 14.1547 12.4166 13.7975 11.8214C13.4484 11.2182 12.9642 10.734 12.3452 10.369C11.7261 9.99598 11.0158 9.78166 10.2142 9.72611V9.65472C10.8491 9.56741 11.4166 9.34912 11.9166 8.99994C12.4166 8.64284 12.8094 8.19834 13.0951 7.66661C13.3888 7.12693 13.5357 6.54359 13.5357 5.9166V5.8928C13.5357 5.01184 13.3213 4.24994 12.8928 3.60709C12.4642 2.95629 11.857 2.45629 11.0714 2.10708C10.2857 1.75788 9.34915 1.58327 8.26184 1.58327H2.58327V4.24994H7.33326C8.17452 4.24994 8.8293 4.44041 9.29757 4.82137C9.76584 5.19439 9.99997 5.72217 9.99997 6.4047V6.42851C9.99997 7.16661 9.73406 7.74201 9.20233 8.15468C8.67852 8.55948 7.90866 8.76185 6.89278 8.76185H2.58327V11.2023H7.32136C8.05152 11.2023 8.6626 11.2936 9.15471 11.4761C9.65467 11.6587 10.0317 11.9325 10.2857 12.2975C10.5396 12.6547 10.6666 13.0952 10.6666 13.619V13.6428C10.6666 14.4364 10.3928 15.0436 9.84515 15.4642C9.29757 15.8769 8.50785 16.0833 7.47612 16.0833H2.58327V18.7618ZM0.785645 18.7618H4.38088V1.58327H0.785645V18.7618ZM20.4285 19.0238C21.3968 19.0238 22.2063 18.8134 22.8571 18.3928C23.5079 17.9721 23.9959 17.3928 24.3213 16.6547H24.3928V18.7618H27.869V5.99994H24.3928V13.3333C24.3928 13.8809 24.2857 14.369 24.0714 14.7976C23.865 15.2182 23.5713 15.5475 23.1904 15.7857C22.8174 16.0237 22.369 16.1428 21.8452 16.1428C21.0674 16.1428 20.4801 15.9126 20.0832 15.4523C19.6944 14.992 19.4999 14.3452 19.4999 13.5119V5.99994H16.0237V14.238C16.0237 15.2301 16.1944 16.0833 16.5357 16.7976C16.8848 17.5119 17.3849 18.0634 18.0356 18.4524C18.6944 18.8333 19.492 19.0238 20.4285 19.0238ZM30.2023 18.7618H33.6785V5.99994H30.2023V18.7618ZM31.9404 4.35708C32.4642 4.35708 32.9047 4.17852 33.2618 3.82137C33.619 3.46423 33.7975 3.03962 33.7975 2.54756C33.7975 2.04756 33.619 1.62296 33.2618 1.27376C32.9047 0.916609 32.4642 0.738037 31.9404 0.738037C31.4166 0.738037 30.9761 0.916609 30.6189 1.27376C30.2618 1.62296 30.0832 2.04756 30.0832 2.54756C30.0832 3.03962 30.2618 3.46423 30.6189 3.82137C30.9761 4.17852 31.4166 4.35708 31.9404 4.35708ZM36.0952 18.7618H39.5713V1.58327H36.0952V18.7618Z" fill="#091AE6"/>
<path d="M46.6426 19.0238C47.5632 19.0238 48.3609 18.8094 49.0355 18.3809C49.7181 17.9444 50.2299 17.3451 50.5712 16.5832H50.6426V18.7618H54.1188V1.58325H50.6426V8.21417H50.5712C50.222 7.44436 49.7061 6.84119 49.0236 6.40468C48.3411 5.96024 47.5474 5.73802 46.6426 5.73802C45.5712 5.73802 44.6466 6.00389 43.8688 6.53563C43.099 7.05944 42.5037 7.81739 42.0831 8.80945C41.6624 9.7936 41.4521 10.9801 41.4521 12.369V12.3809C41.4521 13.7618 41.6585 14.9483 42.0712 15.9404C42.4918 16.9325 43.091 17.6944 43.8688 18.2261C44.6466 18.7579 45.5712 19.0238 46.6426 19.0238ZM47.8093 16.1428C47.2299 16.1428 46.726 15.992 46.2974 15.6904C45.8768 15.3809 45.5513 14.9444 45.3212 14.3809C45.099 13.8174 44.9878 13.1507 44.9878 12.3809V12.369C44.9878 11.5912 45.103 10.9245 45.3331 10.369C45.5632 9.80548 45.8886 9.37295 46.3093 9.07131C46.7299 8.76975 47.2299 8.61897 47.8093 8.61897C48.3728 8.61897 48.8649 8.77371 49.2854 9.08327C49.7141 9.38484 50.0474 9.81737 50.2855 10.3809C50.5315 10.9365 50.6545 11.5992 50.6545 12.369V12.3809C50.6545 13.1507 50.5355 13.8174 50.2974 14.3809C50.0593 14.9444 49.726 15.3809 49.2974 15.6904C48.8688 15.992 48.3728 16.1428 47.8093 16.1428Z" fill="#E69F00"/>
<path d="M56.5239 18.7618H60.0002V1.58325H56.5239V18.7618ZM62.4287 18.7618H65.905V1.58325H62.4287V18.7618ZM74.0597 19.0238C74.9724 19.0238 75.7661 18.9047 76.4406 18.6666C77.1234 18.4285 77.6986 18.111 78.1672 17.7142C78.6426 17.3174 79.0198 16.8808 79.2979 16.4046C79.5752 15.9285 79.7619 15.4563 79.8571 14.988L79.8929 14.8571H76.7028L76.6787 14.9285C76.5994 15.1666 76.4486 15.4007 76.2263 15.6309C76.0042 15.861 75.7184 16.0515 75.3692 16.2023C75.02 16.3531 74.6073 16.4285 74.1311 16.4285C73.528 16.4285 73.0081 16.2975 72.5716 16.0357C72.1351 15.7658 71.7978 15.3809 71.5597 14.8808C71.3295 14.3809 71.2144 13.7777 71.2144 13.0713V11.7261C71.2144 10.996 71.3295 10.3809 71.5597 9.88091C71.7978 9.37295 72.1232 8.98804 72.5359 8.72609C72.9565 8.46423 73.4367 8.33326 73.9763 8.33326C74.516 8.33326 74.9882 8.46027 75.393 8.71421C75.8057 8.96815 76.1271 9.3491 76.3573 9.85707C76.5875 10.3571 76.7028 10.9801 76.7028 11.7261V13.0594L78.3577 11.0118H69.4883V13.2023H80.0003V12.1309C80.0003 10.8452 79.7504 9.72213 79.2499 8.76183C78.7584 7.80151 78.056 7.05944 77.1432 6.53563C76.2382 6.00389 75.1629 5.73802 73.9168 5.73802C72.6708 5.73802 71.5875 6.01182 70.6669 6.55945C69.7541 7.09913 69.0438 7.86897 68.5359 8.86895C68.0358 9.86103 67.7859 11.0357 67.7859 12.3928V12.4046C67.7859 13.7618 68.0358 14.9365 68.5359 15.9285C69.0438 16.9205 69.7661 17.6864 70.7025 18.2261C71.6391 18.7579 72.7581 19.0238 74.0597 19.0238Z" fill="#E65969"/>
</g>
<defs>
<clipPath id="clip0_122_218">
<rect width="80" height="19.0476" fill="white" transform="translate(0.5 0.476074)"/>
</clipPath>
</defs>
</svg>
